<?xml version="1.0" encoding="UTF-8"?>
<!DOCTYPE svg PUBLIC "-//W3C//DTD SVG 1.1//EN" "http://www.w3.org/Graphics/SVG/1.1/DTD/svg11.dtd">
<!-- Creator: CorelDRAW -->
<svg xmlns="http://www.w3.org/2000/svg" xml:space="preserve" width="2048px" height="2048px" style="shape-rendering:geometricPrecision; text-rendering:geometricPrecision; image-rendering:optimizeQuality; fill-rule:evenodd; clip-rule:evenodd"
viewBox="0 0 2048 2048"
 xmlns:xlink="http://www.w3.org/1999/xlink">
 <defs>
  <style type="text/css">
   <![CDATA[
    .fil2 {fill:none}
    .fil9 {fill:#01579B}
    .fil10 {fill:#0277BD}
    .fil11 {fill:#0288D1}
    .fil12 {fill:#05659E}
    .fil7 {fill:#6D8591}
    .fil8 {fill:#78909C}
    .fil3 {fill:#BBDEFB}
    .fil1 {fill:#CE93D8}
    .fil0 {fill:#E1BEE7}
    .fil4 {fill:#37474F;fill-rule:nonzero}
    .fil6 {fill:#553A31;fill-rule:nonzero}
    .fil5 {fill:#5D4037;fill-rule:nonzero}
   ]]>
  </style>
   <clipPath id="id0">
    <path d="M1024 -0.0011811c565.539,0 1024,458.462 1024,1024 0,565.539 -458.462,1024 -1024,1024 -565.539,0 -1024,-458.462 -1024,-1024 0,-565.539 458.462,-1024 1024,-1024z"/>
   </clipPath>
 </defs>
 <g id="Layer_x0020_1">
  <metadata id="CorelCorpID_0Corel-Layer"/>
  <path class="fil0" d="M1024 -0.0011811c565.539,0 1024,458.462 1024,1024 0,565.539 -458.462,1024 -1024,1024 -565.539,0 -1024,-458.462 -1024,-1024 0,-565.539 458.462,-1024 1024,-1024z"/>
  <g style="clip-path:url(#id0)">
   <g id="_289348784">
    <g>
     <polygon id="_2909710321" class="fil1" points="992.075,607.947 2127.96,1743.83 2129.09,1745.08 2130.1,1746.43 2130.98,1747.87 2131.72,1749.41 2132.31,1751.02 2132.74,1752.7 2133.01,1754.44 2133.1,1756.24 997.215,620.356 997.124,618.561 996.858,616.819 996.426,615.137 995.835,613.525 995.096,611.991 994.217,610.544 993.207,609.193 "/>
     <polygon id="_290970936" class="fil1" points="1537.82,859.083 2673.7,1994.96 2676.44,1998.13 2679.1,2001.34 2681.69,2004.62 2684.2,2007.94 2686.63,2011.32 2688.98,2014.76 2691.24,2018.24 2693.43,2021.77 2695.54,2025.34 2697.57,2028.96 2699.51,2032.63 2701.37,2036.33 2703.14,2040.08 2704.83,2043.87 2706.44,2047.69 2707.95,2051.55 2709.38,2055.44 2710.73,2059.37 2711.98,2063.33 2713.15,2067.31 2714.22,2071.33 2715.21,2075.37 2716.11,2079.44 2716.91,2083.53 2717.62,2087.64 2718.24,2091.77 2718.76,2095.93 2719.19,2100.09 1583.31,964.213 1582.88,960.043 1582.35,955.892 1581.74,951.759 1581.03,947.646 1580.22,943.556 1579.33,939.489 1578.34,935.447 1577.27,931.431 1576.1,927.445 1574.85,923.487 1573.5,919.561 1572.07,915.667 1570.55,911.808 1568.95,907.985 1567.26,904.198 1565.49,900.452 1563.63,896.744 1561.68,893.081 1559.66,889.459 1557.55,885.883 1555.36,882.354 1553.09,878.873 1550.74,875.441 1548.32,872.061 1545.81,868.733 1543.22,865.461 1540.56,862.243 "/>
     <polygon id="_290971320" class="fil1" points="1583.67,964.201 2719.55,2100.08 2719.87,2110.79 1583.99,974.903 "/>
     <polygon id="_290971680" class="fil1" points="1583.99,974.903 2719.87,2110.79 2719.88,2110.92 2719.88,2111 2719.88,2111.07 2719.88,2111.12 2719.88,2111.17 2719.88,2111.25 2719.88,2111.36 2719.88,2111.52 1584,975.635 1584,975.477 1584,975.367 1584,975.292 1584,975.237 1584,975.185 1584,975.122 1583.99,975.034 "/>
     <polygon id="_290971800" class="fil1" points="1584,975.635 2719.88,2111.52 2719.88,2111.97 1583.99,976.086 "/>
     <polygon id="_290971488" class="fil1" points="1583.99,976.086 2719.88,2111.97 2719.87,2112.12 1583.99,976.233 "/>
     <polygon id="_290971848" class="fil1" points="1583.99,976.233 2719.87,2112.12 2719.87,2112.23 1583.98,976.344 "/>
     <polygon id="_290971992" class="fil1" points="1583.98,976.344 2719.87,2112.23 2719.69,2116.7 2719.43,2121.16 2719.09,2125.62 2718.67,2130.06 2718.17,2134.49 2717.58,2138.91 2716.91,2143.31 2716.16,2147.69 2715.31,2152.05 2714.39,2156.38 2713.37,2160.7 2712.26,2164.98 2711.07,2169.24 2709.79,2173.47 2708.41,2177.66 2706.95,2181.82 2705.39,2185.94 2703.73,2190.03 2701.99,2194.07 2700.14,2198.07 2698.21,2202.03 2696.17,2205.94 2694.04,2209.8 2691.81,2213.62 2689.48,2217.38 2687.05,2221.08 2684.52,2224.73 2681.89,2228.32 2679.16,2231.85 2676.32,2235.32 2673.38,2238.73 2670.34,2242.07 1534.46,1106.18 1537.5,1102.84 1540.44,1099.44 1543.28,1095.97 1546.01,1092.44 1548.64,1088.85 1551.17,1085.2 1553.6,1081.49 1555.93,1077.73 1558.16,1073.92 1560.29,1070.06 1562.33,1066.15 1564.26,1062.19 1566.11,1058.19 1567.85,1054.15 1569.51,1050.06 1571.06,1045.94 1572.53,1041.78 1573.91,1037.58 1575.19,1033.36 1576.38,1029.1 1577.49,1024.81 1578.5,1020.5 1579.43,1016.16 1580.27,1011.81 1581.03,1007.42 1581.7,1003.02 1582.29,998.609 1582.79,994.177 1583.21,989.733 1583.55,985.279 1583.81,980.814 "/>
     <polygon id="_290972304" class="fil1" points="997.215,620.356 2133.1,1756.24 2133.1,1824.57 997.215,688.688 "/>
     <polygon id="_290972136" class="fil1" points="1092.49,706.238 2228.37,1842.12 2228.37,1910.45 1092.49,774.57 "/>
     <polygon id="_290972376" class="fil1" points="1178.37,792.12 2314.25,1928 2314.25,2563.53 1178.37,1427.65 "/>
     <polygon id="_290972328" class="fil1" points="1397.87,1163.72 2533.75,2299.6 2529.52,2299.31 2525.29,2298.95 2521.08,2298.51 2516.88,2298 2512.7,2297.41 2508.53,2296.75 2504.38,2296 2500.25,2295.18 2496.13,2294.29 2492.05,2293.31 2487.98,2292.25 2483.94,2291.12 2479.93,2289.9 2475.95,2288.6 2472,2287.22 2468.08,2285.75 2464.19,2284.2 2460.35,2282.57 2456.54,2280.85 2452.77,2279.04 2449.04,2277.15 2445.35,2275.17 2441.71,2273.1 2438.11,2270.94 2434.56,2268.7 2431.06,2266.36 2427.61,2263.93 2424.22,2261.41 2420.88,2258.8 2417.59,2256.1 2414.37,2253.3 2411.2,2250.41 1275.32,1114.52 1278.49,1117.42 1281.71,1120.22 1285,1122.92 1288.34,1125.53 1291.73,1128.05 1295.18,1130.48 1298.68,1132.82 1302.23,1135.06 1305.83,1137.22 1309.47,1139.29 1313.15,1141.27 1316.88,1143.16 1320.66,1144.96 1324.47,1146.68 1328.31,1148.32 1332.2,1149.87 1336.12,1151.33 1340.07,1152.72 1344.05,1154.01 1348.06,1155.23 1352.1,1156.37 1356.16,1157.43 1360.25,1158.4 1364.36,1159.3 1368.5,1160.12 1372.65,1160.86 1376.82,1161.53 1381,1162.12 1385.2,1162.63 1389.41,1163.07 1393.64,1163.43 "/>
     <polygon id="_290972232" class="fil1" points="1410.73,1220.81 2546.61,2356.69 2546.56,2356.69 2546.51,2356.7 2546.46,2356.7 2546.42,2356.7 2546.37,2356.7 2546.32,2356.7 2546.27,2356.71 2546.22,2356.71 1410.34,1220.83 1410.39,1220.82 1410.44,1220.82 1410.49,1220.82 1410.53,1220.82 1410.58,1220.82 1410.63,1220.81 1410.68,1220.81 "/>
     <polygon id="_290972160" class="fil1" points="1410.34,1220.83 2546.22,2356.71 2544.07,2356.56 2542.06,2356 2540.22,2355.07 2538.6,2353.82 1402.72,1217.94 1404.34,1219.19 1406.17,1220.12 1408.19,1220.67 "/>
     <polygon id="_290971896" class="fil1" points="1419.16,1163.19 2555.04,2299.08 2556.39,2340.83 1420.5,1204.95 "/>
     <polygon id="_290971944" class="fil1" points="1275.32,1114.52 2411.2,2250.41 2407.92,2247.26 2404.73,2244.03 1268.85,1108.15 1272.04,1111.37 "/>
     <polygon id="_290971920" class="fil1" points="1087.34,693.828 2223.23,1829.71 2224.36,1830.96 2225.37,1832.31 2226.25,1833.75 2226.99,1835.29 2227.58,1836.9 2228.01,1838.58 2228.28,1840.33 2228.37,1842.12 1092.49,706.238 1092.39,704.444 1092.13,702.702 1091.7,701.02 1091.11,699.407 1090.37,697.873 1089.49,696.426 1088.48,695.075 "/>
     <polygon id="_290971968" class="fil1" points="1420.5,1204.95 2556.39,2340.83 2556.39,2340.83 2556.4,2340.83 2556.4,2340.83 2556.41,2340.84 2556.42,2340.84 2556.42,2340.84 2556.43,2340.84 2556.43,2340.85 1420.55,1204.96 1420.55,1204.96 1420.54,1204.96 1420.54,1204.96 1420.53,1204.95 1420.52,1204.95 1420.52,1204.95 1420.51,1204.95 "/>
     <polygon id="_290973360" class="fil1" points="1173.23,779.71 2309.11,1915.59 2310.24,1916.84 2311.25,1918.19 2312.13,1919.64 2312.87,1921.17 2313.46,1922.78 2313.89,1924.47 2314.16,1926.21 2314.25,1928 1178.37,792.12 1178.27,790.326 1178.01,788.584 1177.58,786.902 1176.99,785.288 1176.25,783.754 1175.37,782.307 1174.36,780.956 "/>
     <polygon id="_290973264" class="fil1" points="1420.5,1204.95 2556.39,2340.83 2556.54,2345.74 1420.66,1209.86 "/>
     <polygon id="_290973024" class="fil1" points="1534.46,1106.18 2670.34,2242.07 2667.46,2245.06 2664.53,2247.99 2661.53,2250.84 2658.48,2253.62 2655.36,2256.32 2652.2,2258.95 2648.97,2261.51 2645.7,2263.99 2642.37,2266.39 2638.99,2268.72 2635.57,2270.97 2632.1,2273.14 2628.58,2275.23 2625.02,2277.25 2621.41,2279.18 2617.77,2281.03 2614.08,2282.8 2610.36,2284.48 2606.6,2286.09 2602.8,2287.61 2598.97,2289.04 2595.11,2290.39 2591.22,2291.66 2587.3,2292.84 2583.35,2293.93 2579.37,2294.93 2575.37,2295.85 2571.34,2296.67 2567.3,2297.41 2563.23,2298.06 2559.14,2298.61 2555.04,2299.08 1419.16,1163.19 1423.26,1162.73 1427.35,1162.17 1431.42,1161.53 1435.46,1160.79 1439.49,1159.97 1443.49,1159.05 1447.46,1158.05 1451.41,1156.95 1455.34,1155.78 1459.23,1154.51 1463.09,1153.16 1466.92,1151.72 1470.72,1150.2 1474.48,1148.6 1478.2,1146.91 1481.89,1145.14 1485.53,1143.29 1489.14,1141.36 1492.7,1139.35 1496.22,1137.26 1499.69,1135.09 1503.11,1132.84 1506.49,1130.51 1509.82,1128.11 1513.09,1125.63 1516.32,1123.07 1519.48,1120.44 1522.6,1117.73 1525.65,1114.96 1528.65,1112.1 1531.58,1109.18 "/>
     <polygon id="_290972832" class="fil1" points="1420.66,1209.86 2556.54,2345.74 2556.4,2347.84 2555.87,2349.82 2554.98,2351.63 2553.78,2353.23 2552.3,2354.58 2550.59,2355.63 2548.68,2356.35 2546.61,2356.69 1410.73,1220.81 1412.8,1220.46 1414.71,1219.75 1416.42,1218.69 1417.9,1217.35 1419.1,1215.75 1419.98,1213.94 1420.52,1211.96 "/>
     <polygon id="_290972712" class="fil1" points="1178.37,1427.65 2314.25,2563.53 2314.16,2565.32 2313.89,2567.06 2313.46,2568.75 2312.87,2570.36 2312.13,2571.89 2311.25,2573.34 2310.24,2574.69 2309.11,2575.94 2307.86,2577.07 2306.51,2578.08 2305.06,2578.96 2303.53,2579.7 2301.91,2580.29 2300.23,2580.72 2298.49,2580.99 2296.7,2581.08 1160.82,1445.2 1162.61,1445.1 1164.35,1444.84 1166.03,1444.41 1167.65,1443.82 1169.18,1443.08 1170.63,1442.2 1171.98,1441.19 1173.23,1440.06 1174.36,1438.81 1175.37,1437.46 1176.25,1436.01 1176.99,1434.48 1177.58,1432.86 1178.01,1431.18 1178.27,1429.44 "/>
     <polygon id="_290973096" class="fil1" points="559.27,1273.43 1695.15,2409.31 1617.43,2409.31 481.55,1273.43 "/>
     <polygon id="_290973240" class="fil1" points="576.82,1359.31 1712.7,2495.2 1710.91,2495.1 1709.17,2494.84 1707.48,2494.41 1705.87,2493.82 1704.34,2493.08 1702.89,2492.2 1701.54,2491.19 565.656,1355.31 567.008,1356.32 568.454,1357.2 569.989,1357.93 571.602,1358.52 573.284,1358.96 575.026,1359.22 "/>
     <polygon id="_290972856" class="fil1" points="645.15,1359.31 1781.03,2495.2 1712.7,2495.2 576.82,1359.31 "/>
     <polygon id="_290972904" class="fil1" points="662.702,1445.2 1798.58,2581.08 1796.79,2580.99 1795.05,2580.72 1793.36,2580.29 1791.75,2579.7 1790.22,2578.96 1788.77,2578.08 1787.42,2577.07 651.538,1441.19 652.889,1442.2 654.336,1443.08 655.87,1443.82 657.482,1444.41 659.164,1444.84 660.908,1445.1 "/>
     <polygon id="_290973072" class="fil1" points="1160.82,1445.2 2296.7,2581.08 1798.58,2581.08 662.702,1445.2 "/>
     <polygon id="_290973864" class="fil1" points="481.55,1273.43 1617.43,2409.31 1615.64,2409.22 1613.89,2408.96 1612.21,2408.52 1610.6,2407.93 1609.07,2407.2 1607.62,2406.32 1606.27,2405.31 470.386,1269.42 471.737,1270.43 473.184,1271.31 474.718,1272.05 476.332,1272.64 478.014,1273.07 479.756,1273.34 "/>
    </g>
    <path id="_289349120" class="fil1" d="M1420.5 1204.95c0.0165354,0.00590552 0.0318898,0.011811 0.0484252,0.0177165 -0.0165354,-0.00590552 -0.0318898,-0.011811 -0.0484252,-0.0177165zm105.611 -357.897c32.7957,30.7477 53.1284,72.606 57.1902,117.164l0.362599 -0.011811 0.32126 10.702c0.0129921,0.418111 0.0129921,0.229134 0.00944883,0.732284l-0.00472441 0.451181 -0.00472441 0.146457 -0.00472441 0.111024c-1.46575,47.7178 -16.4788,94.5875 -49.5296,129.84 -30.3177,32.3374 -71.4367,52.5567 -115.296,57.0095l1.34528 41.752 0.158268 4.91103c0.175984,5.74961 -4.24134,10.5744 -9.93544,10.9512 -0.127559,0.00826772 -0.256299,0.0153543 -0.38504,0.0188977 -5.87717,0.178347 -10.7894,-4.44213 -10.9677,-10.3205l-0.157087 -4.86024 -1.35118 -41.9233c-45.176,-2.71299 -89.0918,-17.8335 -122.547,-49.1989 -35.4048,-33.1949 -56.2855,-79.3382 -57.8481,-127.85 -1.57323,-48.7548 16.1528,-95.7095 49.5095,-131.286 33.1949,-35.4059 79.3371,-56.2855 127.849,-57.8493 48.7548,-1.57087 95.7095,16.1539 131.286,49.5095zm-1044.57 -244.242l498.114 0c9.69331,0 17.5512,7.8567 17.5512,17.5488l0 68.3327 77.7201 0c9.69213,0 17.55,7.85788 17.55,17.55l0 68.3315 68.3304 0c9.69213,0 17.55,7.85788 17.55,17.55l0 635.526c0,9.69213 -7.85788,17.55 -17.55,17.55l-498.114 0c-9.69331,0 -17.5512,-7.85788 -17.5512,-17.55l0 -68.3327 -68.3304 0c-9.69213,0 -17.55,-7.85788 -17.55,-17.55l0 -68.3315 -77.7201 0c-9.69213,0 -17.55,-7.85788 -17.55,-17.55l0 -635.526c0,-9.69213 7.85788,-17.5488 17.55,-17.5488z"/>
   </g>
  </g>
  <path class="fil2" d="M1024 -0.0011811c565.539,0 1024,458.462 1024,1024 0,565.539 -458.462,1024 -1024,1024 -565.539,0 -1024,-458.462 -1024,-1024 0,-565.539 458.462,-1024 1024,-1024z"/>
  <circle class="fil3" transform="matrix(0.300217 0.300217 -0.300217 0.300217 1400.72 980.786)" r="336"/>
  <path class="fil4" d="M1418.91 1155.33c-0.179528,-5.87835 -5.09056,-10.5 -10.9689,-10.3205 -5.87835,0.179528 -10.5,5.09056 -10.3205,10.9689l1.7563 54.5268c0.179528,5.87835 5.09056,10.4988 10.9689,10.3193 5.87953,-0.178347 10.5,-5.09056 10.3205,-10.9689l-1.7563 -54.5256z"/>
  <path class="fil5" d="M1437.64 1228.89l18.3874 149.772c0.12874,0.608268 0.205512,1.2378 0.226772,1.8815l-10.6701 0.343701 10.6453 -0.324803c0.623623,19.3441 -9.68032,32.1414 -23.204,38.0894 -5.10945,2.24764 -10.6524,3.46772 -16.1894,3.64607 -5.53701,0.178347 -11.139,-0.680315 -16.3689,-2.58898 -13.6595,-4.98544 -24.6307,-16.8165 -25.5567,-35.6859 -0.0661418,-0.592914 -0.0850394,-1.2 -0.0484252,-1.81536l10.6571 0.615355 -10.6441 -0.618898 8.77796 -151.919c-0.148819,-12.4441 6.65552,-20.7225 15.5339,-24.6284 3.36851,-1.4811 7.00512,-2.28425 10.6276,-2.40118 3.62126,-0.116929 7.29567,0.448819 10.7386,1.70551 9.17835,3.34961 16.539,11.2878 17.087,23.9292z"/>
  <path class="fil6" d="M1415.76 1422.32c-5.18504,0.0413386 -10.4032,-0.82441 -15.2953,-2.61024 -13.6595,-4.98544 -24.6307,-16.8165 -25.5567,-35.6859 -0.0661418,-0.592914 -0.0850394,-1.2 -0.0484252,-1.81536l10.6571 0.615355 -10.6441 -0.618898 8.77796 -151.919c-0.148819,-12.4441 6.65552,-20.7225 15.5339,-24.6284 3.36851,-1.4811 7.00512,-2.28425 10.6276,-2.40118 0.158268,-0.00472441 0.316536,-0.00944883 0.474804,-0.011811l5.47323 219.076z"/>
  <path class="fil5" d="M1437.64 1228.89l18.3874 149.772c0.12874,0.608268 0.205512,1.2378 0.226772,1.8815l-10.6701 0.343701 10.6453 -0.324803c0.623623,19.3441 -9.68032,32.1414 -23.204,38.0894 -5.10945,2.24764 -10.6524,3.46772 -16.1894,3.64607 -0.344882,0.011811 -0.689764,0.0177165 -1.03465,0.0212599l-0.0389764 0 -5.47323 -219.076 0.239764 -0.00236221c3.38859,-0.0248032 6.80788,0.54567 10.024,1.71969 9.17835,3.34961 16.539,11.2878 17.087,23.9292z"/>
  <path class="fil7" d="M1583.31 964.213l0.36378 -0.011811 0.320079 10.702c0.0129921,0.418111 0.0129921,0.229134 0.00944883,0.732284l-0.00472441 0.451181 -0.00590552 0.146457 -0.00354331 0.111024c-1.46575,47.7189 -16.4776,94.5875 -49.5296,129.84 -30.7477,32.7957 -72.6048,53.1284 -117.164,57.189l0.011811 0.36378 -10.702 0.32126c-0.418111,0.011811 -0.229134,0.0129921 -0.731103,0.00944883l-0.452363 -0.00472441 -0.146457 -0.00590552 -0.111024 -0.00354331c-47.7189,-1.46575 -94.5875,-16.4788 -129.84,-49.5296 -35.4048,-33.1949 -56.2855,-79.3382 -57.8493,-127.85 -1.57087,-48.7548 16.1551,-95.7095 49.5107,-131.287 33.1949,-35.4048 79.3371,-56.2843 127.849,-57.8481 48.7548,-1.57087 95.7095,16.1539 131.287,49.5095 32.7945,30.7477 53.1272,72.606 57.189,117.164zm-177.13 157.824c37.089,-1.42795 72.2847,-17.4815 97.6784,-44.5666 25.2201,-26.8996 41.524,-62.5654 38.2016,-99.9839l-0.0200788 -0.225591 -0.0377953 -0.5563 -0.0165354 -0.390945c-0.0212599,-0.523229 -0.0165354,-0.355512 -0.0129921,-0.837402l0.0011811 -0.147638c-1.42795,-37.089 -17.4815,-72.2847 -44.5666,-97.6784 -27.4512,-25.7374 -63.6449,-39.3603 -101.257,-38.1485 -37.4114,1.20591 -72.965,17.2961 -98.5642,44.5996 -25.7362,27.4512 -39.3603,63.6449 -38.1473,101.256 1.20591,37.4126 17.2949,72.9662 44.5996,98.5654 26.8996,25.2189 62.5654,41.524 99.9851,38.2004l0.22441 -0.0200788 0.557481 -0.0377953 0.390945 -0.0165354c0.522048,-0.0200788 0.355512,-0.0165354 0.836221,-0.0129921l0.147638 0.0011811z"/>
  <path class="fil8" d="M1512.2 869.3c61.5721,61.5721 61.5721,161.4 0,222.972 -61.5721,61.5709 -161.4,61.5709 -222.972,0 -61.5721,-61.5721 -61.5721,-161.4 0,-222.972 61.5721,-61.5721 161.4,-61.5721 222.972,0zm-106.029 252.736c37.089,-1.42795 72.2847,-17.4815 97.6784,-44.5666 25.2201,-26.8996 41.524,-62.5654 38.2016,-99.9839l-0.0200788 -0.225591 -0.0377953 -0.5563 -0.0165354 -0.390945c-0.0212599,-0.523229 -0.0165354,-0.355512 -0.0129921,-0.837402l0.0011811 -0.147638c-1.42795,-37.089 -17.4815,-72.2847 -44.5666,-97.6784 -27.4512,-25.7374 -63.6449,-39.3603 -101.257,-38.1485 -37.4114,1.20591 -72.965,17.2961 -98.5642,44.5996 -25.7362,27.4512 -39.3603,63.6449 -38.1473,101.256 1.20591,37.4126 17.2949,72.9662 44.5996,98.5654 26.8996,25.2189 62.5654,41.524 99.9851,38.2004l0.22441 -0.0200788 0.557481 -0.0377953 0.390945 -0.0165354c0.522048,-0.0200788 0.355512,-0.0165354 0.836221,-0.0129921l0.147638 0.0011811z"/>
  <path class="fil9" d="M481.55 602.806l498.115 0c9.69213,0 17.55,7.85788 17.55,17.55l0 635.526c0,9.69213 -7.85788,17.55 -17.55,17.55l-498.115 0c-9.69213,0 -17.55,-7.85788 -17.55,-17.55l0 -635.526c0,-9.69213 7.85788,-17.55 17.55,-17.55z"/>
  <path class="fil10" d="M576.82 688.688l498.115 0c9.69213,0 17.55,7.85788 17.55,17.55l0 635.525c0,9.69331 -7.85788,17.5512 -17.55,17.5512l-498.115 0c-9.69213,0 -17.55,-7.85788 -17.55,-17.5512l0 -635.525c0,-9.69213 7.85788,-17.55 17.55,-17.55z"/>
  <path class="fil11" d="M662.701 774.57l498.115 0c9.69213,0 17.55,7.85788 17.55,17.55l0 635.525c0,9.69331 -7.85788,17.5512 -17.55,17.5512l-498.115 0c-9.69213,0 -17.55,-7.85788 -17.55,-17.5512l0 -635.525c0,-9.69213 7.85788,-17.55 17.55,-17.55z"/>
  <polygon class="fil12" points="723.317,1324.21 1100.2,1324.21 1100.2,1359.31 723.317,1359.31 "/>
  <polygon class="fil12" points="723.317,1238.33 1100.2,1238.33 1100.2,1273.43 723.317,1273.43 "/>
  <polygon class="fil12" points="723.317,1152.45 1100.2,1152.45 1100.2,1187.55 723.317,1187.55 "/>
  <polygon class="fil12" points="723.317,1066.57 1100.2,1066.57 1100.2,1101.67 723.317,1101.67 "/>
  <polygon class="fil12" points="723.317,894.805 939.662,894.805 939.662,929.905 723.317,929.905 "/>
  <polygon class="fil12" points="723.317,980.687 1100.2,980.687 1100.2,1015.79 723.317,1015.79 "/>
 </g>
</svg>
